<mxfile host="app.diagrams.net" agent="Mozilla/5.0 (Windows NT 10.0; Win64; x64) AppleWebKit/537.36 (KHTML, like Gecko) Chrome/131.0.0.0 Safari/537.36" version="24.9.1">
  <diagram name="Страница — 1" id="1hXN6tujKt-layfgxzke">
    <mxGraphModel dx="830" dy="439" grid="1" gridSize="10" guides="1" tooltips="1" connect="1" arrows="1" fold="1" page="1" pageScale="1" pageWidth="827" pageHeight="1169" math="0" shadow="0">
      <root>
        <mxCell id="0" />
        <mxCell id="1" parent="0" />
        <mxCell id="m2Cjjlge13i-lpZ5ysHb-1" value="table component" style="ellipse;whiteSpace=wrap;html=1;aspect=fixed;fillColor=#fff2cc;strokeColor=#d6b656;" vertex="1" parent="1">
          <mxGeometry x="230" y="250" width="80" height="80" as="geometry" />
        </mxCell>
        <mxCell id="m2Cjjlge13i-lpZ5ysHb-3" style="edgeStyle=orthogonalEdgeStyle;rounded=0;orthogonalLoop=1;jettySize=auto;html=1;entryX=0;entryY=0.5;entryDx=0;entryDy=0;" edge="1" parent="1" source="m2Cjjlge13i-lpZ5ysHb-2" target="m2Cjjlge13i-lpZ5ysHb-1">
          <mxGeometry relative="1" as="geometry" />
        </mxCell>
        <mxCell id="m2Cjjlge13i-lpZ5ysHb-2" value="proman-search" style="ellipse;whiteSpace=wrap;html=1;aspect=fixed;fillColor=#fff2cc;strokeColor=#d6b656;" vertex="1" parent="1">
          <mxGeometry x="60" y="250" width="80" height="80" as="geometry" />
        </mxCell>
        <mxCell id="m2Cjjlge13i-lpZ5ysHb-4" value="table-view" style="ellipse;whiteSpace=wrap;html=1;aspect=fixed;fillColor=#fff2cc;strokeColor=#d6b656;" vertex="1" parent="1">
          <mxGeometry x="80" y="350" width="80" height="80" as="geometry" />
        </mxCell>
        <mxCell id="m2Cjjlge13i-lpZ5ysHb-5" style="edgeStyle=orthogonalEdgeStyle;rounded=0;orthogonalLoop=1;jettySize=auto;html=1;entryX=0.023;entryY=0.628;entryDx=0;entryDy=0;entryPerimeter=0;" edge="1" parent="1" source="m2Cjjlge13i-lpZ5ysHb-4" target="m2Cjjlge13i-lpZ5ysHb-1">
          <mxGeometry relative="1" as="geometry" />
        </mxCell>
      </root>
    </mxGraphModel>
  </diagram>
</mxfile>
